<svg width="24" height="24" viewBox="0 0 24 24" fill="none" xmlns="http://www.w3.org/2000/svg">
<path fill-rule="evenodd" clip-rule="evenodd" d="M11.3228 19.8806L12.0037 18L12.709 19.8716C12.2628 20.0396 11.7712 20.0428 11.3228 19.8806ZM10.5469 7.12301C9.76724 6.54309 8.73642 6 7.61016 6C5.08388 6 3.60107 8 4.09534 10.7452C4.94158 15.4452 12.0037 18 12.0037 18C11.3228 19.8806 11.3223 19.8804 11.3218 19.8802L11.3175 19.8787L11.3095 19.8758L11.286 19.8671C11.2669 19.86 11.2412 19.8503 11.2093 19.8381C11.1455 19.8137 11.0566 19.779 10.946 19.7342C10.725 19.6445 10.4159 19.5135 10.0455 19.3419C9.30874 19.0004 8.30879 18.4885 7.27001 17.8078C5.30175 16.5181 2.7033 14.3044 2.12625 11.0995C1.80407 9.31009 2.09019 7.53226 3.11227 6.15279C4.15641 4.74354 5.78727 4 7.61016 4C9.48099 4 11.0173 4.946 11.9486 5.67693C11.9671 5.69144 11.9855 5.70595 12.0037 5.72045C12.0219 5.70595 12.0402 5.69144 12.0587 5.67693C12.99 4.946 14.5264 4 16.3972 4C20.5049 4 22.5659 7.99583 21.866 11.175C21.1782 14.2994 18.6301 16.4889 16.6819 17.7859C15.6585 18.4672 14.6789 18.9822 13.9576 19.3268C13.5951 19.4999 13.293 19.6323 13.0772 19.7231C12.9692 19.7685 12.8824 19.8036 12.82 19.8284C12.7888 19.8408 12.7637 19.8506 12.7451 19.8578L12.7221 19.8666L12.7143 19.8696L12.7101 19.8712C12.7096 19.8714 12.709 19.8716 12.0037 18C12.0037 18 18.8854 15.4083 19.912 10.7452C20.4063 8.5 18.9235 6 16.3972 6C15.2709 6 14.2401 6.54309 13.4604 7.12301C12.5673 7.78734 12.0037 8.5 12.0037 8.5C12.0037 8.5 11.4401 7.78734 10.5469 7.12301Z" fill="#F04A4A"/>
</svg>
