<svg width="24" height="24" viewBox="0 0 24 24" fill="none" xmlns="http://www.w3.org/2000/svg">
<g clip-path="url(#clip0_49_70)">
<path fill-rule="evenodd" clip-rule="evenodd" d="M2.00015 11.017C1.99331 10.6143 2.22866 10.2469 2.59727 10.0847L20.2749 2.30652C20.6524 2.14042 21.0932 2.2231 21.3848 2.51472C21.6764 2.80634 21.7591 3.24708 21.593 3.62457L13.8148 21.3022C13.6526 21.6708 13.2852 21.9062 12.8825 21.8994C12.4798 21.8925 12.1206 21.6448 11.971 21.2709L9.30177 14.5977L2.62862 11.9285C2.25471 11.7789 2.007 11.4197 2.00015 11.017ZM11.2444 14.0693L12.9434 18.3167L17.6156 7.69814L11.2444 14.0693ZM16.2014 6.28393L9.83023 12.6551L5.58281 10.9561L16.2014 6.28393Z" fill="#1D1D28"/>
</g>
<defs>
<clipPath id="clip0_49_70">
<rect width="24" height="24" fill="white"/>
</clipPath>
</defs>
</svg>
